<svg width="1006" height="220" viewBox="0 0 1006 220" fill="none" xmlns="http://www.w3.org/2000/svg">
<mask id="path-1-inside-1_993_695" fill="white">
<path fill-rule="evenodd" clip-rule="evenodd" d="M991.658 176.977L982.662 172.473L975.907 185.967L962.976 179.494L958.473 188.489L971.404 194.962L964.93 207.893L973.926 212.396L980.399 199.466L993.892 206.221L998.396 197.225L984.902 190.47L991.658 176.977Z"/>
</mask>
<path d="M982.662 172.473L984.005 169.791L981.323 168.448L979.98 171.13L982.662 172.473ZM991.658 176.977L994.34 178.32L995.683 175.637L993.001 174.294L991.658 176.977ZM975.907 185.967L974.564 188.65L977.247 189.993L978.59 187.31L975.907 185.967ZM962.976 179.494L964.319 176.811L961.637 175.468L960.294 178.151L962.976 179.494ZM958.473 188.489L955.79 187.146L954.447 189.829L957.13 191.172L958.473 188.489ZM971.404 194.962L974.086 196.305L975.429 193.623L972.747 192.28L971.404 194.962ZM964.93 207.893L962.248 206.55L960.905 209.233L963.587 210.576L964.93 207.893ZM973.926 212.396L972.583 215.079L975.265 216.422L976.608 213.739L973.926 212.396ZM980.399 199.466L981.742 196.783L979.059 195.44L977.716 198.123L980.399 199.466ZM993.892 206.221L992.549 208.903L995.232 210.246L996.575 207.564L993.892 206.221ZM998.396 197.225L1001.08 198.568L1002.42 195.886L999.739 194.543L998.396 197.225ZM984.902 190.47L982.22 189.127L980.877 191.81L983.559 193.153L984.902 190.47ZM981.319 175.156L990.315 179.659L993.001 174.294L984.005 169.791L981.319 175.156ZM978.59 187.31L985.345 173.816L979.98 171.13L973.224 184.624L978.59 187.31ZM961.633 182.176L974.564 188.65L977.25 183.284L964.319 176.811L961.633 182.176ZM961.155 189.832L965.659 180.837L960.294 178.151L955.79 187.146L961.155 189.832ZM972.747 192.28L959.816 185.806L957.13 191.172L970.061 197.645L972.747 192.28ZM967.613 209.236L974.086 196.305L968.721 193.619L962.248 206.55L967.613 209.236ZM975.269 209.714L966.273 205.21L963.587 210.576L972.583 215.079L975.269 209.714ZM977.716 198.123L971.243 211.053L976.608 213.739L983.082 200.809L977.716 198.123ZM995.235 203.538L981.742 196.783L979.056 202.148L992.549 208.903L995.235 203.538ZM995.713 195.882L991.21 204.878L996.575 207.564L1001.08 198.568L995.713 195.882ZM983.559 193.153L997.053 199.908L999.739 194.543L986.245 187.788L983.559 193.153ZM988.975 175.634L982.22 189.127L987.585 191.813L994.34 178.32L988.975 175.634Z" fill="white" fill-opacity="0.3" mask="url(#path-1-inside-1_993_695)"/>
<circle cx="934" cy="58" r="16.5" stroke="white" stroke-opacity="0.3" stroke-width="3"/>
<path d="M800.884 159.452L808.23 189.863L778.22 181.019L800.884 159.452Z" stroke="white" stroke-opacity="0.3" stroke-width="3"/>
<mask id="path-5-inside-2_993_695" fill="white">
<path fill-rule="evenodd" clip-rule="evenodd" d="M296.305 33.675L290.846 42.1251L303.522 50.3127L295.675 62.4598L304.125 67.9182L311.972 55.771L324.119 63.6174L329.577 55.1673L317.43 47.3209L325.618 34.646L317.167 29.1876L308.98 41.8626L296.305 33.675Z"/>
</mask>
<path d="M290.846 42.1251L288.327 40.4973L286.699 43.0173L289.219 44.6451L290.846 42.1251ZM296.305 33.675L297.933 31.155L295.413 29.5272L293.785 32.0472L296.305 33.675ZM303.522 50.3127L306.042 51.9405L307.669 49.4205L305.149 47.7927L303.522 50.3127ZM295.675 62.4598L293.155 60.832L291.527 63.352L294.047 64.9798L295.675 62.4598ZM304.125 67.9182L302.497 70.4381L305.017 72.0659L306.645 69.5459L304.125 67.9182ZM311.972 55.771L313.6 53.251L311.08 51.6233L309.452 54.1432L311.972 55.771ZM324.119 63.6174L322.491 66.1374L325.011 67.7652L326.639 65.2452L324.119 63.6174ZM329.577 55.1673L332.097 56.7951L333.725 54.2751L331.205 52.6473L329.577 55.1673ZM317.43 47.3209L314.91 45.6932L313.282 48.2131L315.802 49.8409L317.43 47.3209ZM325.618 34.646L328.138 36.2737L329.765 33.7538L327.245 32.126L325.618 34.646ZM317.167 29.1876L318.795 26.6676L316.275 25.0398L314.647 27.5598L317.167 29.1876ZM308.98 41.8626L307.352 44.3826L309.872 46.0103L311.5 43.4904L308.98 41.8626ZM293.366 43.7529L298.825 35.3028L293.785 32.0472L288.327 40.4973L293.366 43.7529ZM305.149 47.7927L292.474 39.6051L289.219 44.6451L301.894 52.8326L305.149 47.7927ZM298.195 64.0876L306.042 51.9405L301.002 48.6849L293.155 60.832L298.195 64.0876ZM305.753 65.3982L297.303 59.9398L294.047 64.9798L302.497 70.4381L305.753 65.3982ZM309.452 54.1432L301.605 66.2904L306.645 69.5459L314.492 57.3988L309.452 54.1432ZM325.746 61.0974L313.6 53.251L310.344 58.291L322.491 66.1374L325.746 61.0974ZM327.057 53.5395L321.599 61.9896L326.639 65.2452L332.097 56.7951L327.057 53.5395ZM315.802 49.8409L327.949 57.6873L331.205 52.6473L319.058 44.801L315.802 49.8409ZM323.098 33.0182L314.91 45.6932L319.95 48.9487L328.138 36.2737L323.098 33.0182ZM315.54 31.7076L323.99 37.1659L327.245 32.126L318.795 26.6676L315.54 31.7076ZM311.5 43.4904L319.687 30.8154L314.647 27.5598L306.46 40.2348L311.5 43.4904ZM294.677 36.195L307.352 44.3826L310.608 39.3426L297.933 31.155L294.677 36.195Z" fill="white" fill-opacity="0.3" mask="url(#path-5-inside-2_993_695)"/>
<circle cx="92" cy="166" r="16.5" stroke="white" stroke-opacity="0.3" stroke-width="3"/>
<path d="M13.1093 14.3014L43.6736 20.979L22.6085 44.1096L13.1093 14.3014Z" stroke="white" stroke-opacity="0.3" stroke-width="3"/>
</svg>
