<svg xmlns="http://www.w3.org/2000/svg" width="116.95735" height="210.05309" viewBox="0 0 116.95735 210.05309"><path d="M-125.64-61c-.03,8.6,0,17.2-.15,25.8-.04,2.32.46,3.2,3.03,3.22,10.96.04,21.91.42,32.87.5,2.48.02,3.03.5,2.63,3.11-1.77,11.44-3.3,22.92-4.76,34.4-.31,2.38-1.21,3.04-3.55,3.01-8.72-.14-17.45.07-26.18005-.13-2.99-.07-3.97.55-3.98,3.79-.11,25.8-.5,51.6-.64,77.4-.01,3.04-.68,4-3.86,3.94-10.84-.21-21.69-.17-32.53-.02-2.95.04-4.03-.59-4.05-3.86005-.13-25.68-.56-51.35-.71-77.03-.02-3.24-.78-4.2-4.13-4.12-9.34.22-18.69-.06-28.04.02-2.35.02-3.23-.47-3.13-3.04.21-5.85.06-11.71.06-17.57.27,0,.53,0,.79.01,0-5.74.12-11.47-.05-17.2-.08-2.59.68-3.39,3.33-3.34,9.34.16,18.7-.04,28.04.12,2.63.04,3.33-.72,3.34-3.34.05-11.21-.38-22.42.38995-33.64,1.71-24.85,17.80005-42.05,42.5-45.6a138.00124,138.00124,0,0,1,34.99-.61c2.52.27,3.68.88,3.55,3.8-.47,10.58-.68994,21.17-.86,31.76-.04,2.14-.75,2.69-2.81,2.72-7.59.09-15.21-.59-22.78.47C-121.27-75.18-125.62-70.1-125.64-61Z" transform="translate(202.82757 116.01048)" fill="#fff"/></svg>