<svg xmlns="http://www.w3.org/2000/svg" width="219.71002" height="219.78138" viewBox="0 0 219.71002 219.78138"><path d="M-60.10242-210.3514a56.81211,56.81211,0,0,0-56.58,56.56,56.80354,56.80354,0,0,0,56.55,56.58,56.81009,56.81009,0,0,0,56.58-56.55A56.82515,56.82515,0,0,0-60.10242-210.3514Zm.02,93.63a37.11443,37.11443,0,0,1-37.09-37.18,37.09473,37.09473,0,0,1,37.13-36.93,37.09979,37.09979,0,0,1,36.98,37.07A37.10207,37.10207,0,0,1-60.08247-116.7214Zm58.91-110.08a14.37486,14.37486,0,0,0-14.3,14.27,14.38724,14.38724,0,0,0,14.17,14.2,14.39048,14.39048,0,0,0,14.41-14.17A14.37021,14.37021,0,0,0-1.17243-226.80141Zm0,0a14.37486,14.37486,0,0,0-14.3,14.27,14.38724,14.38724,0,0,0,14.17,14.2,14.39048,14.39048,0,0,0,14.41-14.17A14.37021,14.37021,0,0,0-1.17243-226.80141Zm-58.93,16.45a56.81211,56.81211,0,0,0-56.58,56.56,56.80354,56.80354,0,0,0,56.55,56.58,56.81009,56.81009,0,0,0,56.58-56.55A56.82515,56.82515,0,0,0-60.10242-210.3514Zm.02,93.63a37.11443,37.11443,0,0,1-37.09-37.18,37.09473,37.09473,0,0,1,37.13-36.93,37.09979,37.09979,0,0,1,36.98,37.07A37.10207,37.10207,0,0,1-60.08247-116.7214Zm108.81-99.52a61.63884,61.63884,0,0,0-18.46-31.69,62.0172,62.0172,0,0,0-25.23-13.98c-3.38995-.98-6.86-1.08-10.28-1.62h-110.18c-2.42.61-4.95.32-7.38.91a60.92626,60.92626,0,0,0-31.65,18.58c-10.1,11.22-15.63,24.25-15.63,39.47q.015,50.45993.02,100.93994a55.64086,55.64086,0,0,0,1.93,15.65,60.4241,60.4241,0,0,0,20.67,31.06c11.28,9.05,24.15,13.26,38.7,13.17,32.86-.22,65.72-.09,98.58-.05a55.967,55.967,0,0,0,21.34-3.83,60.7855,60.7855,0,0,0,33.71-32.11,52.76991,52.76991,0,0,0,4.76-18.73v-110.18C49.06756-211.15139,49.34753-213.74142,48.72753-216.24142Zm-157.18-27.81q48.33-.09,96.66.01c18.69.05,33.57,10.64,39.75,27.94a42.22038,42.22038,0,0,1,2.2,14.31q.03,48.015,0,96.02c-.02,18.89-10.6,33.94-28.05,40.11a42.48918,42.48918,0,0,1-14.32,2.16q-47.91.03-95.8,0c-18.93-.02-33.95-10.52-40.18-27.96a43.381,43.381,0,0,1-2.21-14.74q-.02994-23.79006-.01-47.57,0-23.91,0-47.8c-.02-9.17005,2.18994-17.67005,7.65-25.13C-134.29243-238.28139-122.75245-244.02138-108.45246-244.05141Zm107.15,45.72a14.39048,14.39048,0,0,0,14.41-14.17,14.37021,14.37021,0,0,0-14.28-14.3,14.37486,14.37486,0,0,0-14.3,14.27A14.38724,14.38724,0,0,0-1.30244-198.33138Zm-58.83,101.12a56.81009,56.81009,0,0,0,56.58-56.55,56.82515,56.82515,0,0,0-56.55-56.59,56.81211,56.81211,0,0,0-56.58,56.56A56.80354,56.80354,0,0,0-60.13245-97.21139Zm.09-93.62a37.09979,37.09979,0,0,1,36.98,37.07,37.10207,37.10207,0,0,1-37.02,37.04,37.11443,37.11443,0,0,1-37.09-37.18A37.09473,37.09473,0,0,1-60.04243-190.83138Zm-.06-19.52a56.81211,56.81211,0,0,0-56.58,56.56,56.80354,56.80354,0,0,0,56.55,56.58,56.81009,56.81009,0,0,0,56.58-56.55A56.82515,56.82515,0,0,0-60.10242-210.3514Zm.02,93.63a37.11443,37.11443,0,0,1-37.09-37.18,37.09473,37.09473,0,0,1,37.13-36.93,37.09979,37.09979,0,0,1,36.98,37.07A37.10207,37.10207,0,0,1-60.08247-116.7214Zm58.91-110.08a14.37486,14.37486,0,0,0-14.3,14.27,14.38724,14.38724,0,0,0,14.17,14.2,14.39048,14.39048,0,0,0,14.41-14.17A14.37021,14.37021,0,0,0-1.17243-226.80141Zm0,0a14.37486,14.37486,0,0,0-14.3,14.27,14.38724,14.38724,0,0,0,14.17,14.2,14.39048,14.39048,0,0,0,14.41-14.17A14.37021,14.37021,0,0,0-1.17243-226.80141Zm-58.93,16.45a56.81211,56.81211,0,0,0-56.58,56.56,56.80354,56.80354,0,0,0,56.55,56.58,56.81009,56.81009,0,0,0,56.58-56.55A56.82515,56.82515,0,0,0-60.10242-210.3514Zm.02,93.63a37.11443,37.11443,0,0,1-37.09-37.18,37.09473,37.09473,0,0,1,37.13-36.93,37.09979,37.09979,0,0,1,36.98,37.07A37.10207,37.10207,0,0,1-60.08247-116.7214Z" transform="translate(170.08247 263.53139)" fill="#fff"/></svg>