<svg xmlns="http://www.w3.org/2000/svg" width="536.30524" height="98.61606" viewBox="0 0 536.30524 98.61606"><path d="M369.88861-52.94c3.81.36,15.27,1.1,18.82-.25,1.49-4.35.24-42.37.42-50.78,3.8,1.71,19.24,20.53,23.77,23.8,1.99-1.36,3.79-3.96,5.88-5.96l11.6-12.13c2.07-1.94,4.38-4.93,6.25-5.63l-.01,50.96,18.82-.37.36-71.16-.01-22.96c-6.58-1.71-7.53.84-12.96,7.35-3.18,3.81-6.77,6.94-9.81,10.77l-7,7.98c-.99,1.09-1.88,1.77-2.81,2.79-1.9,2.09-7.99,9.82-10.3,11.11-1.9-1.03-8.29-8.65-10.05-10.73-3.38-4.02-6.89-7.13-9.82-10.76-3.04-3.76-6.29-7.09-9.76-10.83-1.83-1.98-2.88-3.42-4.96-5.64-2.55-2.73-3.06-3.02-8.39-2.16Z" transform="translate(80.50665 149.75002)" fill="#000002" fill-rule="evenodd"/><path d="M269.04861-127.29c2.87-.79,14.53-.71,17.72-.21,10.57,1.67,10.55,19.4-.54,20.57-3.24.34-14.44.44-17.25-.34l.07-20.02Zm-18.8,74.76,18.34-.3.34-35.32,8.55-.42,19.16,35.81,20.9-.03c-.92-4.96-19.75-33.49-20.74-38.61,9.78-5.23,14.81-7.89,17.62-22.47.77-15.93-5.41-26.97-17.74-31.07-6.54-2.18-38.11-1.89-46.66-1.32Z" transform="translate(80.50665 149.75002)" fill="#000002" fill-rule="evenodd"/><path d="M229.82861-99.59l-19.23-.02-.11,27.77c-16.76,5.17-37.47-11.57-31.8-35.39a26.49355,26.49355,0,0,1,16.12-18.83c11.71-4.79,19.77-1.1,30.35,1.02.39-4.74,2.28-14.84,1.72-18.78-6.57-2.85-16.61-3.7-24.27-3.28-14.14,2.08-26.81,5.92-35.51,18.32-17.21,24.54-10.12,60.42,18.35,72.61a51.38309,51.38309,0,0,0,23,3.7c6.75-.45,17.24-2.77,21.12-6.49Z" transform="translate(80.50665 149.75002)" fill="#000002" fill-rule="evenodd"/><path d="M330.0386-53a139.90977,139.90977,0,0,0,19.1.02v-93.1l-18.32.11a3.61894,3.61894,0,0,0-.49.17Z" transform="translate(80.50665 149.75002)" fill="#000002" fill-rule="evenodd"/><path d="M77.7686-144.44v57.41c0,9.18-.43,27.47.38,35.65,4.04-.44,2.73-1.55,2.73-11.31l.04-82.3,35.56-.11c18.74.05,31.17,19.35,23.74,37.51-1.29,3.16-3.88,5.79-4.61,8.09.12,1.72,6.93,6.87,6.82,18.73-.08,8.4-2.81,13.83-7.26,18.06-10.14,9.66-15.43,8.45-29.3,8.46-2.86,0-9.85-1.2-8.8,2.11,1.07,1.53,16.33.86,18.79.86a29.19709,29.19709,0,0,0,29.52-29.49c0-9.19-2.52-12.45-6.11-18.72,1.52-4.96,6.07-7.14,6.1-19.35.03-16.9-13.2-29.31-30.12-29.29h-33.07C78.2986-148.14,77.7686-148.61,77.7686-144.44Z" transform="translate(80.50665 149.75002)" fill="#000002" fill-rule="evenodd"/><path d="M-13.95139-53.02c3.39-1.11,4.37-7.5,5.56-10.35,4.26-10.18,31.28-77.82,33.13-79.97,1.48,1.32,1.88,3.09,2.62,5,7.73,20.12,17.56,42.16,25.52,62.47,1.52,3.89,3.16,7.56,4.7,11.55,3.19,8.25,2.92,9.78,6.41,9.65-.01-2.73-29.75-74.54-35.99-89.91-1.01-2.49-1.28-4.32-3.25-5.17-2.08.94-4.44,8.49-5.49,11.05-1.65,4.03-3.2,7.91-4.86,11.99l-27.26,66.98c-.37.91-1.18,2.48-1.4,3.11A3.56507,3.56507,0,0,0-13.95139-53.02Z" transform="translate(80.50665 149.75002)" fill="#000002" fill-rule="evenodd"/><path d="M-24.24139-53.72c-4.68-2.55-44.73,1.28-53.03-1.14-1.02-18.74-.06-59.19-.06-82.09,0-1.89.01-3.76.03-5.64.03-2.91.63-3.9-1.55-5.09-2.31,1.47-1.34,13.56-1.34,18.22V-70.8c0,24.04-4.37,19.28,19.43,19.28h29.33C-27.88139-51.49-24.60139-50.38-24.24139-53.72Z" transform="translate(80.50665 149.75002)" fill="#000002" fill-rule="evenodd"/><path d="M-61.08139-70.48l38.01.28c-.4-3.17,1.42-3-7.1-2.96-5.77.03-25.47.49-28.45-.36-.59-18.76-.11-45.18-.04-65.31.01-2.82.98-7.41-1.47-8.86-2.38,1.19-1.52,1.02-1.5,8.23C-61.60139-127.36-62.33139-73.95-61.08139-70.48Z" transform="translate(80.50665 149.75002)" fill="#000002" fill-rule="evenodd"/><path d="M96.50861-91.19c.96,3.08,1.96,2.4,5.59,2.35,7.72-.1,16.35-1.23,19.41,3.65a7.873,7.873,0,0,1-2.05,10.5c-4.92,3.27-11.06-.79-11.63,3.89,2.4,1.42,8.43,1.14,11.48-.3a10.434,10.434,0,0,0,6.05-7.12c3.35-12.83-9.82-13.51-17.61-13.5Z" transform="translate(80.50665 149.75002)" fill="#000002" fill-rule="evenodd"/><path d="M96.6886-127.05c4.83,2.72,29.89-4.15,25.64,10.97-2.63,9.34-13.11,2.01-13.14,8.17,8.01.71,17.36-.89,16.47-11.46-.98-11.74-14.83-10.05-25.48-9.88C97.82861-129.21,96.63861-129.49,96.6886-127.05Z" transform="translate(80.50665 149.75002)" fill="#000002" fill-rule="evenodd"/><path d="M6.01861-53.15c2.74-.28,2.85-2.15,5.12-8.13l27.29-.13c.87,2.64,2.86,9.56,4.89,8.12,2.04-1.44-1.2-5.98-2.76-10.8l-31.54.05C7.36861-58.68,4.5686-55.82,6.01861-53.15Z" transform="translate(80.50665 149.75002)" fill="#000002" fill-rule="evenodd"/><path d="M24.05861-99.71c-1.73,3.35,3.89,9.36,5.11,16.62-9.65.17-12.11-1.39-12.61,2.4,5.24.94,6.29.5,11.92.46,7.48-.04,4.76-.82-.82-15.35C26.6586-98.18,26.4586-100.26,24.05861-99.71Z" transform="translate(80.50665 149.75002)" fill="#000002" fill-rule="evenodd"/></svg>