<?xml version="1.0" encoding="utf-8"?>
<!-- Generator: Adobe Illustrator 26.0.3, SVG Export Plug-In . SVG Version: 6.00 Build 0)  -->
<svg version="1.1" id="Camada_1" xmlns="http://www.w3.org/2000/svg" xmlns:xlink="http://www.w3.org/1999/xlink" x="0px" y="0px"
	 viewBox="0 0 595.28 255.12" style="enable-background:new 0 0 595.28 255.12;" xml:space="preserve">
<style type="text/css">
	.st0{fill-rule:evenodd;clip-rule:evenodd;fill:#000002;}
</style>
<g>
	<path class="st0" d="M479.88,175.06c3.81,0.36,15.27,1.1,18.82-0.25c1.49-4.35,0.24-42.37,0.42-50.78
		c3.8,1.71,19.24,20.53,23.77,23.8c1.99-1.36,3.79-3.96,5.88-5.96l11.6-12.13c2.07-1.94,4.38-4.93,6.25-5.63l-0.01,50.96l18.82-0.37
		l0.36-71.16l-0.01-22.96c-6.58-1.71-7.53,0.84-12.96,7.35c-3.18,3.81-6.77,6.94-9.81,10.77l-7,7.98c-0.99,1.09-1.88,1.77-2.81,2.79
		c-1.9,2.09-7.99,9.82-10.3,11.11c-1.9-1.03-8.29-8.65-10.05-10.73c-3.38-4.02-6.89-7.13-9.82-10.76
		c-3.04-3.76-6.29-7.09-9.76-10.83c-1.83-1.98-2.88-3.42-4.96-5.64c-2.55-2.73-3.06-3.02-8.39-2.16L479.88,175.06z"/>
	<path class="st0" d="M379.04,100.71c2.87-0.79,14.53-0.71,17.72-0.21c10.57,1.67,10.55,19.4-0.54,20.57
		c-3.24,0.34-14.44,0.44-17.25-0.34L379.04,100.71L379.04,100.71z M360.24,175.47l18.34-0.3l0.34-35.32l8.55-0.42l19.16,35.81
		l20.9-0.03c-0.92-4.96-19.75-33.49-20.74-38.61c9.78-5.23,14.81-7.89,17.62-22.47c0.77-15.93-5.41-26.97-17.74-31.07
		c-6.54-2.18-38.11-1.89-46.66-1.32L360.24,175.47z"/>
	<path class="st0" d="M339.82,128.41l-19.23-0.02l-0.11,27.77c-16.76,5.17-37.47-11.57-31.8-35.39c2.13-8.93,7.99-15.51,16.12-18.83
		c11.71-4.79,19.77-1.1,30.35,1.02c0.39-4.74,2.28-14.84,1.72-18.78c-6.57-2.85-16.61-3.7-24.27-3.28
		c-14.14,2.08-26.81,5.92-35.51,18.32c-17.21,24.54-10.12,60.42,18.35,72.61c6.71,2.87,14.98,4.23,23,3.7
		c6.75-0.45,17.24-2.77,21.12-6.49L339.82,128.41z"/>
	<path class="st0" d="M440.03,175c3.48,0.46,15.48,0.43,19.1,0.02l0-93.1l-18.32,0.11c-0.12,0.03-0.33,0.1-0.49,0.17L440.03,175z"/>
	<path class="st0" d="M187.76,83.56l0,57.41c0,9.18-0.43,27.47,0.38,35.65c4.04-0.44,2.73-1.55,2.73-11.31l0.04-82.3l35.56-0.11
		c18.74,0.05,31.17,19.35,23.74,37.51c-1.29,3.16-3.88,5.79-4.61,8.09c0.12,1.72,6.93,6.87,6.82,18.73
		c-0.08,8.4-2.81,13.83-7.26,18.06c-10.14,9.66-15.43,8.45-29.3,8.46c-2.86,0-9.85-1.2-8.8,2.11c1.07,1.53,16.33,0.86,18.79,0.86
		c16.63,0.02,29.52-13.06,29.52-29.49c0-9.19-2.52-12.45-6.11-18.72c1.52-4.96,6.07-7.14,6.1-19.35
		c0.03-16.9-13.2-29.31-30.12-29.29l-33.07,0C188.29,79.86,187.76,79.39,187.76,83.56z"/>
	<path class="st0" d="M96.04,174.98c3.39-1.11,4.37-7.5,5.56-10.35c4.26-10.18,31.28-77.82,33.13-79.97c1.48,1.32,1.88,3.09,2.62,5
		c7.73,20.12,17.56,42.16,25.52,62.47c1.52,3.89,3.16,7.56,4.7,11.55c3.19,8.25,2.92,9.78,6.41,9.65
		c-0.01-2.73-29.75-74.54-35.99-89.91c-1.01-2.49-1.28-4.32-3.25-5.17c-2.08,0.94-4.44,8.49-5.49,11.05
		c-1.65,4.03-3.2,7.91-4.86,11.99l-27.26,66.98c-0.37,0.91-1.18,2.48-1.4,3.11C95.41,172.28,95.02,173.54,96.04,174.98z"/>
	<path class="st0" d="M85.75,174.28c-4.68-2.55-44.73,1.28-53.03-1.14c-1.02-18.74-0.06-59.19-0.06-82.09
		c0-1.89,0.01-3.76,0.03-5.64c0.03-2.91,0.63-3.9-1.55-5.09c-2.31,1.47-1.34,13.56-1.34,18.22l0,58.66
		c0,24.04-4.37,19.28,19.43,19.28l29.33,0C82.11,176.51,85.39,177.62,85.75,174.28z"/>
	<path class="st0" d="M48.91,157.52l38.01,0.28c-0.4-3.17,1.42-3-7.1-2.96c-5.77,0.03-25.47,0.49-28.45-0.36
		c-0.59-18.76-0.11-45.18-0.04-65.31c0.01-2.82,0.98-7.41-1.47-8.86c-2.38,1.19-1.52,1.02-1.5,8.23
		C48.39,100.64,47.66,154.05,48.91,157.52z"/>
	<path class="st0" d="M206.5,136.81c0.96,3.08,1.96,2.4,5.59,2.35c7.72-0.1,16.35-1.23,19.41,3.65c2.41,3.85,0.84,8.58-2.05,10.5
		c-4.92,3.27-11.06-0.79-11.63,3.89c2.4,1.42,8.43,1.14,11.48-0.3c2.94-1.39,5.11-3.54,6.05-7.12c3.35-12.83-9.82-13.51-17.61-13.5
		L206.5,136.81z"/>
	<path class="st0" d="M206.68,100.95c4.83,2.72,29.89-4.15,25.64,10.97c-2.63,9.34-13.11,2.01-13.14,8.17
		c8.01,0.71,17.36-0.89,16.47-11.46c-0.98-11.74-14.83-10.05-25.48-9.88C207.82,98.79,206.63,98.51,206.68,100.95z"/>
	<path class="st0" d="M116.01,174.85c2.74-0.28,2.85-2.15,5.12-8.13l27.29-0.13c0.87,2.64,2.86,9.56,4.89,8.12
		c2.04-1.44-1.2-5.98-2.76-10.8l-31.54,0.05C117.36,169.32,114.56,172.18,116.01,174.85z"/>
	<path class="st0" d="M134.05,128.29c-1.73,3.35,3.89,9.36,5.11,16.62c-9.65,0.17-12.11-1.39-12.61,2.4
		c5.24,0.94,6.29,0.5,11.92,0.46c7.48-0.04,4.76-0.82-0.82-15.35C136.65,129.82,136.45,127.74,134.05,128.29z"/>
</g>
</svg>
