<svg width="39" height="38" viewBox="0 0 39 38" fill="none" xmlns="http://www.w3.org/2000/svg">
<mask id="path-1-inside-1_956_573" fill="white">
<path fill-rule="evenodd" clip-rule="evenodd" d="M38.3556 10.4648L32.2377 2.4792L20.2593 11.656L11.4649 0.176827L3.47936 6.29468L12.2737 17.7739L0.794508 26.5683L6.91236 34.5538L18.3916 25.7595L27.5684 37.7379L35.554 31.62L26.3772 19.6416L38.3556 10.4648Z"/>
</mask>
<path d="M32.2377 2.4792L34.6192 0.654736L32.7947 -1.72672L30.4133 0.0977449L32.2377 2.4792ZM38.3556 10.4648L40.18 12.8462L42.5615 11.0218L40.737 8.64031L38.3556 10.4648ZM20.2593 11.656L17.8778 13.4805L19.7023 15.8619L22.0838 14.0375L20.2593 11.656ZM11.4649 0.176827L13.8464 -1.64764L12.0219 -4.02909L9.64047 -2.20463L11.4649 0.176827ZM3.47936 6.29468L1.65489 3.91323L-0.726563 5.73769L1.0979 8.11915L3.47936 6.29468ZM12.2737 17.7739L14.0982 20.1553L16.4796 18.3309L14.6552 15.9494L12.2737 17.7739ZM0.794508 26.5683L-1.02996 24.1868L-3.41141 26.0113L-1.58695 28.3927L0.794508 26.5683ZM6.91236 34.5538L4.53091 36.3783L6.35537 38.7598L8.73683 36.9353L6.91236 34.5538ZM18.3916 25.7595L20.773 23.935L18.9486 21.5535L16.5671 23.378L18.3916 25.7595ZM27.5684 37.7379L25.187 39.5624L27.0114 41.9438L29.3929 40.1194L27.5684 37.7379ZM35.554 31.62L37.3785 34.0015L39.7599 32.177L37.9354 29.7956L35.554 31.62ZM26.3772 19.6416L24.5527 17.2602L22.1712 19.0846L23.9957 21.4661L26.3772 19.6416ZM29.8563 4.30366L35.9741 12.2892L40.737 8.64031L34.6192 0.654736L29.8563 4.30366ZM22.0838 14.0375L34.0622 4.86066L30.4133 0.0977449L18.4348 9.27457L22.0838 14.0375ZM9.08348 2.00129L17.8778 13.4805L22.6408 9.83156L13.8464 -1.64764L9.08348 2.00129ZM5.30382 8.67614L13.2894 2.55828L9.64047 -2.20463L1.65489 3.91323L5.30382 8.67614ZM14.6552 15.9494L5.86081 4.47022L1.0979 8.11915L9.89227 19.5983L14.6552 15.9494ZM2.61897 28.9497L14.0982 20.1553L10.4493 15.3924L-1.02996 24.1868L2.61897 28.9497ZM9.29382 32.7294L3.17596 24.7438L-1.58695 28.3927L4.53091 36.3783L9.29382 32.7294ZM16.5671 23.378L5.0879 32.1724L8.73683 36.9353L20.216 28.1409L16.5671 23.378ZM29.9499 35.9134L20.773 23.935L16.0101 27.5839L25.187 39.5624L29.9499 35.9134ZM33.7295 29.2386L25.7439 35.3564L29.3929 40.1194L37.3785 34.0015L33.7295 29.2386ZM23.9957 21.4661L33.1725 33.4445L37.9354 29.7956L28.7586 17.8171L23.9957 21.4661ZM36.5311 8.08332L24.5527 17.2602L28.2016 22.0231L40.18 12.8462L36.5311 8.08332Z" fill="white" fill-opacity="0.3" mask="url(#path-1-inside-1_956_573)"/>
</svg>
